{
  "accessors": [
    {
      "bufferView": 3,
      "componentType": 5126,
      "count": 2452,
      "max": [
        10.577609062194824,
        23.588489532470703,
        42.74064254760742
      ],
      "min": [
        -10.577609062194824,
        -24.022037506103516,
        -42.871376037597656
      ],
      "type": "VEC3"
    },
    {
      "bufferView": 3,
      "byteOffset": 29424,
      "componentType": 5126,
      "count": 2452,
      "max": [
        1.0,
        0.9959964156150818,
        0.9748744368553162
      ],
      "min": [
        -1.0,
        -1.0,
        -0.9997602105140686
      ],
      "type": "VEC3"
    },
    {
      "bufferView": 2,
      "componentType": 5126,
      "count": 2452,
      "max": [
        0.987841010093689,
        0.963703989982605
      ],
      "min": [
        0.01584400050342083,
        0.0653270035982132
      ],
      "type": "VEC2"
    },
    {
      "bufferView": 1,
      "componentType": 5125,
      "count": 3726,
      "type": "SCALAR"
    },
    {
      "bufferView": 5,
      "componentType": 5126,
      "count": 41,
      "max": [
        100.0,
        0.7076514363288879,
        0.9999732375144958,
        0.0,
        0.7076480388641357,
        100.0,
        0.9986333847045898,
        0.0,
        0.9999729990959167,
        0.9993273615837097,
        100.0,
        0.0,
        28.371116638183594,
        23.352262496948242,
        37.198062896728516,
        1.0
      ],
      "min": [
        -1.000000238418579,
        -0.7076514363288879,
        -0.9999732375144958,
        0.0,
        -0.7076480388641357,
        -0.9999768733978271,
        -0.9993273615837097,
        0.0,
        -0.9999729990959167,
        -0.9986564517021179,
        -0.9998186230659485,
        0.0,
        -28.371116638183594,
        -28.341432571411133,
        -42.66413497924805,
        1.0
      ],
      "type": "MAT4"
    },
    {
      "bufferView": 0,
      "componentType": 5123,
      "count": 2452,
      "type": "VEC4"
    },
    {
      "bufferView": 4,
      "componentType": 5126,
      "count": 2452,
      "max": [
        1.0,
        0.5,
        0.28985652327537537,
        0.24787719547748566
      ],
      "min": [
        0.25212278962135315,
        0.0,
        0.0,
        0.0
      ],
      "type": "VEC4"
    }
  ],
  "asset": {
    "extras": {
      "author": "yukonriver (https://sketchfab.com/yukonriver)",
      "license": "CC-BY-4.0 (http://creativecommons.org/licenses/by/4.0/)",
      "source": "https://sketchfab.com/3d-models/low-poly-cow-rig-30a8e0e94c6242ef972e8158d29efab5",
      "title": "Low Poly Cow Rig"
    },
    "generator": "Sketchfab-15.56.0",
    "version": "2.0"
  },
  "bufferViews": [
    {
      "buffer": 0,
      "byteLength": 19616,
      "byteStride": 8,
      "name": "shortBufferViews",
      "target": 34962
    },
    {
      "buffer": 0,
      "byteLength": 14904,
      "byteOffset": 19616,
      "name": "floatBufferViews",
      "target": 34963
    },
    {
      "buffer": 0,
      "byteLength": 19616,
      "byteOffset": 34520,
      "byteStride": 8,
      "name": "floatBufferViews",
      "target": 34962
    },
    {
      "buffer": 0,
      "byteLength": 58848,
      "byteOffset": 54136,
      "byteStride": 12,
      "name": "floatBufferViews",
      "target": 34962
    },
    {
      "buffer": 0,
      "byteLength": 39232,
      "byteOffset": 112984,
      "byteStride": 16,
      "name": "floatBufferViews",
      "target": 34962
    },
    {
      "buffer": 0,
      "byteLength": 2624,
      "byteOffset": 152216,
      "name": "floatBufferViews"
    }
  ],
  "buffers": [
    {
      "byteLength": 154840,
      "uri": "scene.bin"
    }
  ],
  "images": [
    {
      "uri": "textures/Cow_mat_baseColor.png"
    }
  ],
  "materials": [
    {
      "doubleSided": true,
      "name": "Cow_mat",
      "pbrMetallicRoughness": {
        "baseColorTexture": {
          "index": 0
        },
        "metallicFactor": 0.0
      }
    }
  ],
  "meshes": [
    {
      "name": "Cow_Cow_mat_0",
      "primitives": [
        {
          "attributes": {
            "JOINTS_0": 5,
            "NORMAL": 1,
            "POSITION": 0,
            "TEXCOORD_0": 2,
            "WEIGHTS_0": 6
          },
          "indices": 3,
          "material": 0,
          "mode": 4
        }
      ]
    }
  ],
  "nodes": [
    {
      "children": [
        1
      ],
      "matrix": [
        1.0,
        0.0,
        0.0,
        0.0,
        0.0,
        2.220446049250313e-16,
        -1.0,
        0.0,
        0.0,
        1.0,
        2.220446049250313e-16,
        0.0,
        0.0,
        0.0,
        0.0,
        1.0
      ],
      "name": "Sketchfab_model"
    },
    {
      "children": [
        2
      ],
      "matrix": [
        0.009999999776482582,
        0.0,
        0.0,
        0.0,
        0.0,
        0.0,
        0.009999999776482582,
        0.0,
        0.0,
        -0.009999999776482582,
        0.0,
        0.0,
        0.0,
        0.0,
        0.0,
        1.0
      ],
      "name": "Cow.fbx"
    },
    {
      "children": [
        3
      ],
      "name": "RootNode"
    },
    {
      "children": [
        4
      ],
      "matrix": [
        100.0,
        0.0,
        0.0,
        0.0,
        0.0,
        99.9999999999999,
        4.371138828673792e-06,
        0.0,
        0.0,
        -4.371138828673792e-06,
        99.9999999999999,
        0.0,
        0.0,
        0.0,
        0.0,
        1.0
      ],
      "name": "rig"
    },
    {
      "children": [
        5,
        7,
        6
      ],
      "name": "Object_4"
    },
    {
      "children": [
        8
      ],
      "name": "_rootJoint"
    },
    {
      "matrix": [
        100.0,
        0.0,
        0.0,
        0.0,
        0.0,
        100.00000105808368,
        4.360780593515301e-06,
        0.0,
        0.0,
        -4.360780592848066e-06,
        100.00000104278287,
        0.0,
        0.0,
        0.0001481473473177175,
        -0.00020013389075757004,
        1.0
      ],
      "name": "Object_6"
    },
    {
      "mesh": 0,
      "name": "Object_7",
      "skin": 0
    },
    {
      "children": [
        9,
        28
      ],
      "name": "body_01",
      "rotation": [
        0.6940199732780457,
        0.0,
        0.0,
        0.7199557423591614
      ],
      "scale": [
        1.0,
        0.9999999403953552,
        0.9999999403953552
      ],
      "translation": [
        0.0,
        15.859999656677246,
        -23.950000762939453
      ]
    },
    {
      "children": [
        10
      ],
      "name": "body_top0_02",
      "rotation": [
        0.03681109473109245,
        0.0,
        0.0,
        0.999322235584259
      ],
      "translation": [
        0.0,
        10.907337188720703,
        9.5367431640625e-07
      ]
    },
    {
      "children": [
        11,
        16,
        22
      ],
      "name": "body_top1_03",
      "rotation": [
        -0.037869520485401154,
        -0.0,
        0.0,
        0.999282717704773
      ],
      "translation": [
        0.0,
        11.908133506774902,
        -8.903443813323975e-07
      ]
    },
    {
      "children": [
        12
      ],
      "name": "neck0_04",
      "rotation": [
        0.0005091281491331756,
        0.0,
        0.0,
        0.9999998807907104
      ],
      "scale": [
        1.0,
        0.9999998807907104,
        0.9999998807907104
      ],
      "translation": [
        0.0,
        11.858924865722656,
        -6.258487701416016e-07
      ]
    },
    {
      "children": [
        13
      ],
      "name": "neck1_05",
      "rotation": [
        -0.04525592923164368,
        -0.0,
        0.0,
        0.9989755153656006
      ],
      "scale": [
        1.0,
        0.9999999403953552,
        0.9999999403953552
      ],
      "translation": [
        0.0,
        10.457460403442383,
        4.76837158203125e-07
      ]
    },
    {
      "children": [
        14
      ],
      "name": "neck2_06",
      "rotation": [
        -0.09288930892944336,
        -0.0,
        0.0,
        0.9956764578819275
      ],
      "scale": [
        1.0,
        1.0000001192092896,
        1.0
      ],
      "translation": [
        0.0,
        3.125701665878296,
        9.5367431640625e-07
      ]
    },
    {
      "children": [
        15
      ],
      "name": "head0_07",
      "rotation": [
        0.5401671528816223,
        5.805330511066131e-05,
        7.992127939360216e-05,
        0.8415578603744507
      ],
      "scale": [
        1.0,
        1.0000001192092896,
        1.0000001192092896
      ],
      "translation": [
        0.0,
        8.570009231567383,
        9.5367431640625e-07
      ]
    },
    {
      "name": "head0_end_034",
      "rotation": [
        0.0,
        0.0,
        1.3552527156068805e-20,
        1.0
      ],
      "translation": [
        8.673617379884035e-19,
        11.913268089294434,
        -7.105427357601002e-15
      ]
    },
    {
      "children": [
        17
      ],
      "name": "leg_front_left_top0_08",
      "rotation": [
        0.620541512966156,
        0.5277814269065857,
        0.5486665964126587,
        0.18798920512199402
      ],
      "scale": [
        1.0,
        1.0000001192092896,
        1.0
      ],
      "translation": [
        0.0,
        11.858924865722656,
        -6.258487701416016e-07
      ]
    },
    {
      "children": [
        18
      ],
      "name": "leg_front_left_top1_09",
      "rotation": [
        0.19517424702644348,
        0.9263954758644104,
        -0.21545261144638062,
        0.2393295168876648
      ],
      "scale": [
        0.9999998807907104,
        0.9999998211860657,
        0.9999998807907104
      ],
      "translation": [
        -5.662441253662109e-07,
        6.4626336097717285,
        -4.76837158203125e-07
      ]
    },
    {
      "children": [
        19
      ],
      "name": "leg_front_left_top2_010",
      "rotation": [
        0.1163547933101654,
        0.8564252853393555,
        -0.11907967180013657,
        -0.488689661026001
      ],
      "scale": [
        1.0000001192092896,
        0.9999998807907104,
        0.9999999403953552
      ],
      "translation": [
        5.662441253662109e-07,
        16.652313232421875,
        -2.2351741790771484e-07
      ]
    },
    {
      "children": [
        20
      ],
      "name": "leg_front_left_bot0_011",
      "rotation": [
        -0.12186841666698456,
        -0.3878369927406311,
        -0.11901552975177765,
        0.905850887298584
      ],
      "scale": [
        0.9999998807907104,
        1.0,
        0.9999999403953552
      ],
      "translation": [
        -2.384185791015625e-07,
        7.030825138092041,
        -1.1920928955078125e-07
      ]
    },
    {
      "children": [
        21
      ],
      "name": "leg_front_left_hoof_012",
      "rotation": [
        -0.12019461393356323,
        -0.6636934876441956,
        -0.11531352996826172,
        0.7292235493659973
      ],
      "scale": [
        1.0,
        1.0000001192092896,
        1.0
      ],
      "translation": [
        6.203626981005073e-07,
        6.8003668785095215,
        -5.59186446480453e-07
      ]
    },
    {
      "name": "leg_front_left_hoof_end_035",
      "rotation": [
        -2.7755575615628914e-17,
        -0.0,
        0.0,
        1.0
      ],
      "translation": [
        0.0,
        3.2733778953552246,
        -8.881784197001252e-16
      ]
    },
    {
      "children": [
        23
      ],
      "name": "leg_front_right_top0_013",
      "rotation": [
        0.620541512966156,
        -0.5277814269065857,
        -0.5486665964126587,
        0.18798920512199402
      ],
      "scale": [
        1.0,
        1.0000001192092896,
        1.0
      ],
      "translation": [
        0.0,
        11.858924865722656,
        -6.258487701416016e-07
      ]
    },
    {
      "children": [
        24
      ],
      "name": "leg_front_right_top1_014",
      "rotation": [
        -0.19517424702644348,
        0.9263954758644104,
        -0.21545261144638062,
        -0.2393295168876648
      ],
      "scale": [
        0.9999998807907104,
        0.9999998211860657,
        0.9999998807907104
      ],
      "translation": [
        5.662441253662109e-07,
        6.4626336097717285,
        -4.76837158203125e-07
      ]
    },
    {
      "children": [
        25
      ],
      "name": "leg_front_right_top2_015",
      "rotation": [
        -0.1163547933101654,
        0.8564252853393555,
        -0.11907967180013657,
        0.488689661026001
      ],
      "scale": [
        1.0000001192092896,
        0.9999998807907104,
        0.9999999403953552
      ],
      "translation": [
        -5.662441253662109e-07,
        16.652313232421875,
        -2.2351741790771484e-07
      ]
    },
    {
      "children": [
        26
      ],
      "name": "leg_front_right_bot0_016",
      "rotation": [
        -0.12186841666698456,
        0.3878369927406311,
        0.11901552975177765,
        0.905850887298584
      ],
      "scale": [
        0.9999998807907104,
        1.0,
        0.9999999403953552
      ],
      "translation": [
        2.384185791015625e-07,
        7.030825138092041,
        -1.1920928955078125e-07
      ]
    },
    {
      "children": [
        27
      ],
      "name": "leg_front_right_hoof_017",
      "rotation": [
        -0.12019461393356323,
        0.6636934876441956,
        0.11531352996826172,
        0.7292235493659973
      ],
      "scale": [
        1.0,
        1.0000001192092896,
        1.0
      ],
      "translation": [
        -6.203626981005073e-07,
        6.8003668785095215,
        -5.59186446480453e-07
      ]
    },
    {
      "name": "leg_front_right_hoof_end_036",
      "rotation": [
        -2.7755575615628914e-17,
        -0.0,
        0.0,
        1.0
      ],
      "translation": [
        0.0,
        3.2733778953552246,
        -8.881784197001252e-16
      ]
    },
    {
      "children": [
        29,
        36,
        42
      ],
      "name": "body_bot_018",
      "rotation": [
        0.9990205764770508,
        0.0,
        0.0,
        -0.044248152524232864
      ],
      "scale": [
        1.0,
        1.0,
        1.0000231266021729
      ],
      "translation": [
        0.0,
        -4.76837158203125e-07,
        1.0728836059570313e-06
      ]
    },
    {
      "children": [
        30
      ],
      "name": "pelvis_019",
      "rotation": [
        -0.5371200442314148,
        -0.0,
        0.0,
        0.8435057997703552
      ],
      "scale": [
        1.0,
        1.0000001192092896,
        1.0
      ],
      "translation": [
        0.0,
        9.262451171875,
        2.384185791015625e-07
      ]
    },
    {
      "children": [
        31
      ],
      "name": "tail0_00",
      "rotation": [
        -0.15826354920864105,
        -0.0,
        0.0,
        0.9873968958854675
      ],
      "translation": [
        0.0,
        18.10851287841797,
        -4.231929779052734e-06
      ]
    },
    {
      "children": [
        32
      ],
      "name": "tail0.001_020",
      "rotation": [
        2.0116567611694336e-07,
        0.0,
        0.0,
        1.0
      ],
      "translation": [
        0.0,
        0.4403572976589203,
        -3.0938535928726196e-06
      ]
    },
    {
      "children": [
        33
      ],
      "name": "tail1_021",
      "rotation": [
        -1.1920928955078125e-07,
        -0.0,
        0.0,
        1.0
      ],
      "translation": [
        0.0,
        0.5311489701271057,
        6.854534149169922e-07
      ]
    },
    {
      "children": [
        34
      ],
      "name": "tail2_022",
      "rotation": [
        -5.99771794895787e-07,
        -0.0,
        0.0,
        1.0
      ],
      "scale": [
        1.0,
        0.9999999403953552,
        0.9999999403953552
      ],
      "translation": [
        0.0,
        0.26029902696609497,
        3.0547380447387695e-06
      ]
    },
    {
      "children": [
        35
      ],
      "name": "tail3_023",
      "rotation": [
        -0.07577358931303024,
        -0.0,
        0.0,
        0.9971250295639038
      ],
      "scale": [
        1.0,
        1.0000001192092896,
        1.0
      ],
      "translation": [
        0.0,
        0.2395559549331665,
        8.195638656616211e-07
      ]
    },
    {
      "name": "tail3_end_037",
      "rotation": [
        1.734723475976807e-18,
        0.0,
        0.0,
        1.0
      ],
      "translation": [
        0.0,
        5.250952243804932,
        0.0
      ]
    },
    {
      "children": [
        37
      ],
      "name": "leg_hind_left_top0_024",
      "rotation": [
        -0.06950113922357559,
        -0.594873309135437,
        0.6265438795089722,
        -0.49873650074005127
      ],
      "scale": [
        0.9999999403953552,
        0.9999999403953552,
        0.9999999403953552
      ],
      "translation": [
        0.0,
        9.262451171875,
        2.384185791015625e-07
      ]
    },
    {
      "children": [
        38
      ],
      "name": "leg_hind_left_top1_025",
      "rotation": [
        -1.128051962950849e-06,
        0.2929988205432892,
        -0.4095366895198822,
        0.8639625906944275
      ],
      "scale": [
        0.9999998211860657,
        0.9999998807907104,
        0.9999999403953552
      ],
      "translation": [
        -4.76837158203125e-07,
        8.125494956970215,
        9.5367431640625e-07
      ]
    },
    {
      "children": [
        39
      ],
      "name": "leg_hind_left_top2_026",
      "rotation": [
        -1.1911839514766598e-08,
        0.9578931927680969,
        -0.2859863340854645,
        0.025543581694364548
      ],
      "scale": [
        1.0000001192092896,
        1.0,
        1.0
      ],
      "translation": [
        6.431702672671236e-07,
        11.714730262756348,
        -3.4644436652797594e-08
      ]
    },
    {
      "children": [
        40
      ],
      "name": "leg_hind_left_bot0_027",
      "rotation": [
        -0.29645541310310364,
        0.025543304160237312,
        0.00027924016467295587,
        0.954704999923706
      ],
      "scale": [
        1.0,
        0.9999999403953552,
        0.9999998807907104
      ],
      "translation": [
        7.748603820800781e-07,
        6.844458103179932,
        -1.1920928955078125e-07
      ]
    },
    {
      "children": [
        41
      ],
      "name": "leg_hind_left_hoof_028",
      "rotation": [
        -0.1278543621301651,
        -1.2043577726217336e-06,
        -1.5619589532889222e-07,
        0.9917929768562317
      ],
      "translation": [
        -8.338716952493996e-07,
        13.702969551086426,
        -1.196733137476258e-06
      ]
    },
    {
      "name": "leg_hind_left_hoof_end_038",
      "rotation": [
        0.0,
        -0.0,
        -1.3234889800848443e-23,
        1.0
      ],
      "translation": [
        0.0,
        2.9120430946350098,
        0.0
      ]
    },
    {
      "children": [
        43
      ],
      "name": "leg_hind_right_top0_029",
      "rotation": [
        0.06950113922357559,
        -0.594873309135437,
        0.6265438795089722,
        0.49873650074005127
      ],
      "scale": [
        0.9999999403953552,
        0.9999999403953552,
        0.9999999403953552
      ],
      "translation": [
        0.0,
        9.262451171875,
        2.384185791015625e-07
      ]
    },
    {
      "children": [
        44
      ],
      "name": "leg_hind_right_top1_030",
      "rotation": [
        -1.128051962950849e-06,
        -0.2929988205432892,
        0.4095366895198822,
        0.8639625906944275
      ],
      "scale": [
        0.9999998211860657,
        0.9999998807907104,
        0.9999999403953552
      ],
      "translation": [
        4.76837158203125e-07,
        8.125494956970215,
        9.5367431640625e-07
      ]
    },
    {
      "children": [
        45
      ],
      "name": "leg_hind_right_top2_031",
      "rotation": [
        1.1911839514766598e-08,
        0.9578931927680969,
        -0.2859863340854645,
        -0.025543581694364548
      ],
      "scale": [
        1.0000001192092896,
        1.0,
        1.0
      ],
      "translation": [
        -6.431702672671236e-07,
        11.714730262756348,
        -3.4644436652797594e-08
      ]
    },
    {
      "children": [
        46
      ],
      "name": "leg_hind_right_bot0_032",
      "rotation": [
        -0.29645541310310364,
        -0.025543304160237312,
        -0.00027924016467295587,
        0.954704999923706
      ],
      "scale": [
        1.0,
        0.9999999403953552,
        0.9999998807907104
      ],
      "translation": [
        -7.748603820800781e-07,
        6.844458103179932,
        -1.1920928955078125e-07
      ]
    },
    {
      "children": [
        47
      ],
      "name": "leg_hind_right_hoof_033",
      "rotation": [
        -0.1278543621301651,
        1.2043577726217336e-06,
        1.5619589532889222e-07,
        0.9917929768562317
      ],
      "translation": [
        8.338716952493996e-07,
        13.702969551086426,
        -1.196733137476258e-06
      ]
    },
    {
      "name": "leg_hind_right_hoof_end_039",
      "rotation": [
        0.0,
        0.0,
        1.3234889800848443e-23,
        1.0
      ],
      "translation": [
        0.0,
        2.9120430946350098,
        0.0
      ]
    }
  ],
  "samplers": [
    {
      "magFilter": 9729,
      "minFilter": 9987,
      "wrapS": 10497,
      "wrapT": 10497
    }
  ],
  "scene": 0,
  "scenes": [
    {
      "name": "Sketchfab_Scene",
      "nodes": [
        0
      ]
    }
  ],
  "skins": [
    {
      "inverseBindMatrices": 4,
      "joints": [
        5,
        8,
        9,
        10,
        11,
        12,
        13,
        14,
        15,
        16,
        17,
        18,
        19,
        20,
        21,
        22,
        23,
        24,
        25,
        26,
        27,
        28,
        29,
        30,
        31,
        32,
        33,
        34,
        35,
        36,
        37,
        38,
        39,
        40,
        41,
        42,
        43,
        44,
        45,
        46,
        47
      ],
      "skeleton": 5
    }
  ],
  "textures": [
    {
      "sampler": 0,
      "source": 0
    }
  ]
}
